<?xml version="1.0" encoding="utf-8"?>
<!-- Generator: Adobe Illustrator 27.5.0, SVG Export Plug-In . SVG Version: 6.00 Build 0)  -->
<svg version="1.1" id="Capa_1" xmlns="http://www.w3.org/2000/svg" xmlns:xlink="http://www.w3.org/1999/xlink" x="0px" y="0px"
	 viewBox="0 0 425.197 425.197" style="enable-background:new 0 0 425.197 425.197;" xml:space="preserve">
<g id="Capa_2">
</g>
<path style="fill:#923114;" d="M260.407,358.34c0,12.667-26.039,22.936-58.159,22.936c-11.387,0-22-1.295-30.969-3.526
	c11.487,3.091,25.798,4.927,41.319,4.927c37.836,0,68.508-10.895,68.508-24.336c0-4.638-3.656-8.973-9.995-12.662
	c-3.639,3.162-7.503,6.072-11.59,8.691C260.093,355.661,260.407,356.986,260.407,358.34z"/>
<path style="fill:#AF5017;" d="M212.598,202.641c-52.356,0-96.496-12.37-110.075-29.252c-0.115,19.312,0.864,38.629,2.963,57.832
	c2.59,23.704,6.93,47.47,16.47,69.414c2.796,6.432,6.085,12.702,9.837,18.683c8.229,5.049,17.438,8.27,27.55,8.607
	c13.613,0.453,26.893-3.861,36.862-13.221c10.555-9.911,17.687-23.553,29.392-32.208c6.848-5.064,14.128-5.597,21.906-2.135
	c7.538,3.356,14.243,8.478,22.834,8.601c18.169,0.261,33.891-14.594,43.391-28.708c0.82-1.219,1.609-2.455,2.374-3.703
	c1.529-8.395,2.684-16.867,3.609-25.332c2.099-19.203,3.078-38.521,2.963-57.833C309.094,190.271,264.955,202.641,212.598,202.641z"
	/>
<path style="fill:#9C3C16;" d="M270.338,288.964c-8.591-0.123-15.296-5.246-22.834-8.601c-7.777-3.462-15.057-2.929-21.906,2.135
	c-11.705,8.655-18.837,22.297-29.392,32.208c-9.969,9.36-23.249,13.674-36.862,13.221c-10.112-0.336-19.322-3.558-27.55-8.607h0
	c0.001,0.001,0.001,0.002,0.002,0.003c0.535,0.853,1.082,1.699,1.637,2.54c0.088,0.133,0.177,0.264,0.265,0.397
	c1.608,2.417,3.298,4.779,5.067,7.078c0.222,0.288,0.445,0.576,0.669,0.862c0.526,0.671,1.055,1.34,1.595,1.999
	c0.225,0.275,0.458,0.545,0.686,0.818c0.894,1.072,1.807,2.127,2.738,3.166c0.4,0.446,0.801,0.892,1.207,1.331
	c0.456,0.492,0.916,0.98,1.38,1.464c0.522,0.544,1.053,1.08,1.586,1.614c0.457,0.457,0.914,0.915,1.38,1.365
	c0.779,0.753,1.571,1.493,2.373,2.222c0.371,0.337,0.748,0.667,1.123,0.999c0.146,0.129,0.291,0.261,0.438,0.389
	c-5.662,3.324-9.175,7.265-9.758,11.513c-0.001,0.004-0.002,0.007-0.002,0.01c-0.056,0.414-0.089,0.83-0.089,1.25c0,0,0,0,0,0
	c0,0.004,0.001,0.007,0.001,0.011c0.001,0.415,0.032,0.828,0.088,1.237c0.002,0.011,0.005,0.022,0.007,0.034
	c1.068,7.641,11.623,14.281,27.094,18.128c8.969,2.23,19.583,3.526,30.969,3.526c32.12,0,58.159-10.269,58.159-22.936
	c0-1.355-0.315-2.68-0.886-3.97c4.087-2.619,7.951-5.529,11.59-8.691c2.127-1.848,4.176-3.781,6.15-5.79
	c1.477-1.503,2.922-3.038,4.313-4.622c1.643-1.871,3.215-3.803,4.738-5.775c1.322-1.711,2.615-3.445,3.846-5.224
	c1.715-2.475,3.342-5.012,4.883-7.599c1.54-2.587,2.994-5.224,4.36-7.9c1.366-2.676,2.646-5.391,3.839-8.134
	c0.699-1.607,1.361-3.226,2.005-4.852c0.191-0.482,0.373-0.966,0.559-1.449c0.46-1.193,0.907-2.39,1.339-3.592
	c0.179-0.498,0.358-0.996,0.532-1.495c0.484-1.385,0.951-2.775,1.4-4.171c0.084-0.26,0.173-0.518,0.255-0.778
	c0.55-1.734,1.075-3.475,1.576-5.224c0.044-0.155,0.085-0.311,0.129-0.466c0.449-1.585,0.879-3.175,1.291-4.771
	c0.081-0.314,0.16-0.628,0.24-0.942c0.399-1.575,0.782-3.154,1.147-4.738c0.038-0.163,0.077-0.326,0.114-0.49
	c0.84-3.684,1.594-7.39,2.272-11.112c0-0.001,0-0.001,0-0.002h0c-0.765,1.248-1.553,2.484-2.374,3.703
	C304.229,274.37,288.507,289.225,270.338,288.964z"/>
<path style="fill:#703413;" d="M202.47,129.067c2.971-0.107,5.978-0.176,9.02-0.2c0.483-2.25,1.138-4.475,1.907-6.666
	c-0.267-0.001-0.531-0.004-0.798-0.004c-2.902,0-5.778,0.039-8.626,0.113c-0.324,1.035-0.627,2.076-0.872,3.136
	C202.823,126.644,202.619,127.853,202.47,129.067z"/>
<path style="fill:#703413;" d="M212.598,202.641c52.357,0,96.496-12.37,110.075-29.252c2.805-3.487,4.307-7.167,4.307-10.97
	c0-19.554-39.685-35.846-92.275-39.468c-0.786,1.059-1.553,2.129-2.29,3.218c-0.681,1.008-1.398,2.045-2.126,3.101
	c17.768,0.911,34.033,3.29,47.574,6.745c1.302,0.332,2.578,0.674,3.829,1.026c11.879,3.341,21.388,7.546,27.6,12.314
	c0.327,0.251,0.645,0.503,0.953,0.758c0.617,0.508,1.197,1.022,1.739,1.542c0.271,0.26,0.532,0.521,0.784,0.784
	c1.51,1.576,2.672,3.203,3.456,4.869c0.131,0.278,0.251,0.557,0.361,0.837c0.219,0.56,0.396,1.124,0.529,1.692
	c0.2,0.852,0.302,1.713,0.302,2.582c0,0.381-0.027,0.761-0.066,1.139c-0.01,0.096-0.022,0.193-0.034,0.289
	c-0.046,0.355-0.104,0.71-0.184,1.062c-0.005,0.023-0.008,0.047-0.014,0.071c-0.087,0.373-0.198,0.744-0.322,1.114
	c-0.031,0.092-0.064,0.185-0.098,0.277c-0.121,0.335-0.255,0.67-0.406,1.002c-0.017,0.038-0.032,0.076-0.049,0.114
	c-0.17,0.365-0.363,0.728-0.569,1.089c-0.05,0.087-0.102,0.173-0.154,0.26c-0.19,0.319-0.393,0.637-0.611,0.954
	c-0.033,0.048-0.063,0.097-0.097,0.145c-0.25,0.355-0.521,0.708-0.806,1.06c-0.067,0.082-0.136,0.164-0.204,0.245
	c-0.255,0.304-0.521,0.607-0.801,0.908c-0.038,0.041-0.07,0.082-0.109,0.123c0,0-0.002-0.001-0.002-0.002
	c-12.962,13.73-52.311,23.714-98.847,23.714c-46.536,0-85.885-9.984-98.847-23.714c-0.001,0.001-0.001,0.001-0.002,0.002
	c-0.038-0.041-0.071-0.082-0.109-0.123c-0.28-0.301-0.546-0.603-0.801-0.908c-0.069-0.082-0.138-0.163-0.205-0.245
	c-0.285-0.351-0.556-0.704-0.806-1.059c-0.035-0.049-0.065-0.098-0.099-0.148c-0.217-0.315-0.419-0.632-0.609-0.95
	c-0.052-0.087-0.105-0.174-0.154-0.262c-0.206-0.361-0.399-0.723-0.569-1.088c-0.018-0.038-0.032-0.076-0.049-0.114
	c-0.152-0.333-0.285-0.667-0.407-1.003c-0.033-0.091-0.066-0.183-0.097-0.275c-0.124-0.37-0.236-0.742-0.322-1.116
	c-0.005-0.022-0.008-0.045-0.013-0.067c-0.08-0.354-0.139-0.709-0.185-1.066c-0.012-0.096-0.024-0.191-0.034-0.287
	c-0.039-0.379-0.066-0.758-0.066-1.14c0-5.724,4.418-11.112,12.199-15.827c0.259-0.157,0.523-0.313,0.789-0.468
	c0.672-0.392,1.362-0.78,2.08-1.162c5.401-2.874,12.1-5.462,19.825-7.682c1.824-0.524,3.705-1.028,5.641-1.509
	c0.783-0.195,1.574-0.387,2.375-0.574c0.36-0.084,0.72-0.168,1.083-0.251c3.115-0.711,6.356-1.368,9.712-1.966
	c0.981-0.175,1.971-0.345,2.971-0.509c1.256-0.207,2.527-0.406,3.812-0.596c2.378-0.353,4.804-0.678,7.275-0.972
	c0.241-2.392,0.732-4.755,1.494-7.036c-47.249,4.944-81.708,20.333-81.708,38.553c0,3.803,1.502,7.483,4.307,10.97
	C116.103,190.271,160.242,202.641,212.598,202.641z"/>
<path style="fill:#D99755;" d="M220.73,148.633c-0.357,2.913,0.039,5.775,1.569,8.499c-3.869-1.693-6.827-4.825-8.802-8.571
	c-2.76,0.005-5.497,0.042-8.202,0.116c3.002,7.167,8.06,13.471,14.647,17.611c-12.009,3.387-25.256-0.325-33.5-9.691
	c-1.712-1.945-3.151-4.106-4.339-6.4c-31.927,3.365-57.049,11.632-66.908,22.071c12.962,13.73,52.311,23.714,98.847,23.714
	c46.536,0,85.885-9.984,98.847-23.714C300.551,159.202,264.309,149.538,220.73,148.633z"/>
<path style="fill:#FCCC84;" d="M210.656,138.09c-0.154-3.109,0.182-6.189,0.834-9.223c-3.042,0.024-6.049,0.092-9.02,0.2
	c-0.813,6.625,0.24,13.436,2.825,19.609c2.705-0.074,5.441-0.111,8.202-0.116C211.807,145.355,210.834,141.699,210.656,138.09z"/>
<path style="fill:#FCCC84;" d="M220.73,148.633c43.58,0.904,79.821,10.569,92.16,23.634c0.001,0.001,0.002,0.001,0.002,0.001
	c0.039-0.04,0.071-0.082,0.109-0.122c0.28-0.301,0.546-0.603,0.801-0.908c0.068-0.082,0.138-0.163,0.204-0.245
	c0.285-0.351,0.556-0.704,0.806-1.06c0.034-0.048,0.064-0.096,0.097-0.145c0.218-0.316,0.421-0.634,0.611-0.954
	c0.052-0.087,0.104-0.173,0.154-0.26c0.206-0.361,0.399-0.724,0.569-1.089c0.018-0.038,0.032-0.076,0.049-0.114
	c0.151-0.332,0.285-0.666,0.406-1.002c0.033-0.092,0.066-0.184,0.098-0.277c0.124-0.37,0.235-0.741,0.322-1.114
	c0.005-0.023,0.008-0.047,0.014-0.071c0.08-0.352,0.138-0.706,0.184-1.062c0.013-0.096,0.024-0.193,0.034-0.289
	c0.039-0.378,0.066-0.758,0.066-1.139c0-0.869-0.102-1.73-0.302-2.582c-0.133-0.568-0.31-1.132-0.529-1.692
	c-0.11-0.28-0.23-0.559-0.361-0.837c-0.784-1.667-1.946-3.293-3.456-4.869c-0.252-0.263-0.513-0.524-0.784-0.784
	c-0.542-0.52-1.122-1.034-1.739-1.542c-0.309-0.254-0.626-0.507-0.953-0.758c-6.212-4.768-15.721-8.973-27.6-12.314
	c-1.25-0.352-2.527-0.694-3.829-1.026c-13.54-3.455-29.805-5.834-47.574-6.745C226.108,135.34,221.527,142.115,220.73,148.633z"/>
<path style="fill:#FCCC84;" d="M182.103,150.196c-3.048-5.888-4.337-12.694-3.672-19.294c-2.471,0.294-4.896,0.619-7.275,0.972
	c-1.285,0.191-2.556,0.389-3.812,0.596c-1,0.165-1.99,0.335-2.971,0.509c-3.355,0.598-6.596,1.255-9.712,1.966
	c-0.363,0.083-0.724,0.167-1.083,0.251c-0.801,0.188-1.592,0.38-2.375,0.574c-1.936,0.482-3.817,0.985-5.641,1.509
	c-7.726,2.22-14.424,4.808-19.825,7.682c-0.718,0.382-1.408,0.77-2.08,1.162c-0.266,0.155-0.53,0.311-0.789,0.468
	c-7.781,4.715-12.199,10.103-12.199,15.827c0,0.382,0.027,0.761,0.066,1.14c0.01,0.096,0.021,0.191,0.034,0.287
	c0.046,0.357,0.104,0.712,0.185,1.066c0.005,0.022,0.008,0.045,0.013,0.067c0.087,0.374,0.198,0.745,0.322,1.116
	c0.031,0.092,0.064,0.183,0.097,0.275c0.121,0.336,0.255,0.67,0.407,1.003c0.017,0.038,0.031,0.076,0.049,0.114
	c0.17,0.365,0.363,0.727,0.569,1.088c0.05,0.088,0.103,0.175,0.154,0.262c0.19,0.318,0.392,0.635,0.609,0.95
	c0.034,0.049,0.064,0.099,0.099,0.148c0.25,0.355,0.521,0.708,0.806,1.059c0.066,0.082,0.136,0.164,0.205,0.245
	c0.255,0.304,0.521,0.607,0.801,0.908c0.038,0.041,0.07,0.082,0.109,0.123c0.001-0.001,0.002-0.001,0.002-0.002
	C125.054,161.828,150.176,153.561,182.103,150.196z"/>
<path style="fill:#BA632E;" d="M153.708,233.219c-0.406-5.276-0.295-10.754-1.83-15.624c-1.536-4.87-5.155-9.167-10.37-9.545
	c-15.849-1.151-19.996,20.312-20.313,32.793c-0.035,1.376-0.023,2.643,0.024,3.758c1.159,27.146,12.488,58.709,36.372,70.285
	c4.449,2.156,10.063,2.712,15.21,0.418c20.012-8.92,1.767-28.603-3.362-37.287C161.523,264.616,154.991,249.874,153.708,233.219z"/>
<path style="fill:#C67430;" d="M159.039,167.52c0-1.694-2.902-3.067-6.482-3.067c-3.58,0-6.482,1.373-6.482,3.067
	c0,1.694,2.902,3.067,6.482,3.067C156.136,170.587,159.039,169.214,159.039,167.52z"/>
<ellipse style="fill:#C67430;" cx="161.92" cy="173.654" rx="6.482" ry="3.067"/>
<path style="fill:#C67430;" d="M238.872,171.787c-3.58,0-6.482,1.373-6.482,3.067c0,1.694,2.902,3.067,6.482,3.067
	s6.482-1.373,6.482-3.067C245.355,173.16,242.452,171.787,238.872,171.787z"/>
<ellipse style="fill:#C67430;" cx="294.797" cy="174.854" rx="4.843" ry="2.291"/>
<path style="fill:#C67430;" d="M259.203,175.083c-4.241,0-7.678,1.626-7.678,3.633c0,2.006,3.438,3.633,7.678,3.633
	c4.241,0,7.678-1.626,7.678-3.633C266.881,176.71,263.443,175.083,259.203,175.083z"/>
<ellipse style="fill:#C67430;" cx="199.096" cy="184.063" rx="7.678" ry="3.633"/>
<ellipse style="fill:#C67430;" cx="144.393" cy="174.854" rx="8.163" ry="3.862"/>
<path style="fill:#C67430;" d="M257.526,166.725c0,2.133,3.655,3.862,8.163,3.862s8.163-1.729,8.163-3.862
	c0-2.133-3.655-3.862-8.163-3.862S257.526,164.592,257.526,166.725z"/>
<path style="fill:#F2F2F2;" d="M211.49,128.867c-0.651,3.034-0.988,6.114-0.834,9.223c0.179,3.609,1.151,7.265,2.841,10.471
	c1.975,3.747,4.933,6.878,8.802,8.571c-1.53-2.724-1.926-5.586-1.569-8.499c0.798-6.519,5.379-13.294,9.56-19.363
	c0.728-1.057,1.445-2.093,2.126-3.101c0.736-1.09,1.504-2.159,2.29-3.218c5.985-8.069,13.114-15.423,17.035-24.642
	c5.928-13.936,3.152-31.163-6.855-42.531c-10.006-11.368-26.086-15.874-40.662-11.763c16.142,10.146,24.74,30.996,20.442,49.572
	c-1.767,7.635-5.43,14.67-8.572,21.85c-0.968,2.213-1.892,4.471-2.697,6.764C212.628,124.393,211.973,126.618,211.49,128.867
	L211.49,128.867z"/>
<path style="fill:#F2F2F2;" d="M178.431,130.902c-0.665,6.6,0.624,13.406,3.672,19.294c1.187,2.294,2.627,4.455,4.339,6.4
	c8.244,9.366,21.492,13.078,33.5,9.691c-6.587-4.14-11.645-10.444-14.647-17.611c-2.585-6.173-3.638-12.984-2.825-19.609l0,0
	c0.149-1.215,0.354-2.424,0.63-3.62c0.245-1.06,0.548-2.101,0.872-3.136c1.601-5.107,4.038-9.947,6.19-14.866
	c2.588-5.915,4.799-12.214,4.48-18.663c-0.319-6.449-3.677-13.099-9.592-15.688c4.573,8.14-3.108,17.773-8.335,25.509
	c-5.227,7.736-12.266,14.362-15.921,22.953c-0.323,0.758-0.609,1.529-0.87,2.309C179.163,126.147,178.671,128.51,178.431,130.902
	L178.431,130.902z"/>
</svg>
